<?xml version="1.0" encoding="UTF-8" standalone="no"?>
<svg width="22px" height="21px" viewBox="0 0 22 21" version="1.1" fill="none" stroke="none" xmlns="http://www.w3.org/2000/svg" xmlns:xlink="http://www.w3.org/1999/xlink">
    <!-- Generator: Sketch 3.8.2 (29753) - http://www.bohemiancoding.com/sketch -->
    <title>Slice 1</title>
    <desc>Created with Sketch.</desc>
    <defs></defs>
    <g id="Page-1" stroke="none" stroke-width="1" fill="currentColor" fill-rule="evenodd">
        <path d="M19.0588235,0 L2.11764706,0 C0.952941176,0 0,0.945 0,2.1 L0,18.9 C0,20.055 0.952941176,21 2.11764706,21 L19.0588235,21 C20.2235294,21 21.1764706,20.055 21.1764706,18.9 L21.1764706,2.1 C21.1764706,0.945 20.2235294,0 19.0588235,0 L19.0588235,0 Z M10.5882353,6.3 C12.9176471,6.3 14.8235294,8.19 14.8235294,10.5 C14.8235294,12.81 12.9176471,14.7 10.5882353,14.7 C8.25882353,14.7 6.35294118,12.81 6.35294118,10.5 C6.35294118,8.19 8.25882353,6.3 10.5882353,6.3 L10.5882353,6.3 Z M2.64705882,18.9 C2.32941176,18.9 2.11764706,18.69 2.11764706,18.375 L2.11764706,9.45 L4.34117647,9.45 C4.23529412,9.765 4.23529412,10.185 4.23529412,10.5 C4.23529412,13.965 7.09411765,16.8 10.5882353,16.8 C14.0823529,16.8 16.9411765,13.965 16.9411765,10.5 C16.9411765,10.185 16.9411765,9.765 16.8352941,9.45 L19.0588235,9.45 L19.0588235,18.375 C19.0588235,18.69 18.8470588,18.9 18.5294118,18.9 L2.64705882,18.9 L2.64705882,18.9 Z M19.0588235,4.725 C19.0588235,5.04 18.8470588,5.25 18.5294118,5.25 L16.4117647,5.25 C16.0941176,5.25 15.8823529,5.04 15.8823529,4.725 L15.8823529,2.625 C15.8823529,2.31 16.0941176,2.1 16.4117647,2.1 L18.5294118,2.1 C18.8470588,2.1 19.0588235,2.31 19.0588235,2.625 L19.0588235,4.725 L19.0588235,4.725 Z" id="Shape"></path>
    </g>
</svg>
