<?xml version="1.0" encoding="UTF-8" standalone="no"?>
<svg width="32px" height="18px" viewBox="0 0 32 18" version="1.1" xmlns="http://www.w3.org/2000/svg" xmlns:xlink="http://www.w3.org/1999/xlink">
    <!-- Generator: Sketch 3.7.1 (28215) - http://www.bohemiancoding.com/sketch -->
    <title>Path</title>
    <desc>Created with Sketch.</desc>
    <defs></defs>
    <g id="Page-1" stroke="none" stroke-width="1" fill="none" fill-rule="evenodd">
        <g id="1" transform="translate(-957.000000, -8971.000000)" fill="currentColor">
            <g id="Group-44" transform="translate(171.000000, 8899.000000)">
                <g id="Group-41">
                    <path d="M811.927387,90 C810.511101,89.9394513 811.121842,89.9394513 809.821386,89.3603022 C807.975605,88.5382971 806.757154,85.4642003 805.598854,85.8274855 C804.424758,86.2065657 804.461613,88.7390319 804.461613,88.7390319 C804.461613,88.7390319 804.46951,89.2813272 804.198363,89.5682698 C803.908788,89.8841699 803.340167,89.94735 803.340167,89.94735 L801.452664,89.94735 C800.241258,89.9394513 797.288047,90.1974376 793.620973,86.3776782 C789.619571,82.2104287 786.086754,73.9443747 786.086754,73.9443747 C786.086754,73.9443747 785.881419,73.4020795 786.102549,73.1414618 C786.350004,72.8466217 787.023925,72.8255617 787.023925,72.8255617 L791.541297,72.7992367 C791.843748,72.8176644 791.967762,72.8676817 792.2705,73.0888118 C792.520587,73.2730869 792.665375,73.6205771 792.665375,73.6205771 C792.665375,73.6205771 793.391945,75.463328 794.358073,77.1349663 C796.242944,80.3940029 797.122199,81.1047782 797.761897,80.757288 C798.69117,80.2492153 798.412125,76.1504108 798.412125,76.1504108 C798.412125,76.1504108 798.42792,74.6630476 797.94354,73.9996573 C797.561827,73.488952 796.851052,73.3415319 796.537784,73.2967794 C796.285064,73.2599244 796.700999,72.6702441 797.240662,72.406994 C798.056737,72.0121188 799.486186,71.9857938 801.181516,72.0042213 C802.503032,72.0147513 802.882112,72.0963588 803.398082,72.2227189 C804.951258,72.5991666 804.424758,74.0496748 804.424758,77.5298415 C804.424758,78.640757 804.22732,80.2097278 805.030233,80.7283305 C805.372458,80.9520931 806.222756,80.762553 808.336655,77.1691888 C809.337005,75.4659605 810.089901,73.4652595 810.089901,73.4652595 C810.089901,73.4652595 810.253116,73.1072393 810.511101,72.9545543 C810.769086,72.7966042 811.121841,72.8492542 811.121841,72.8492542 L815.870873,72.8176642 C816.790965,72.8176644 817.297689,72.6465516 817.529349,73.2915144 C817.771539,73.9680672 816.994952,75.547568 815.054798,78.1353168 C811.869472,82.3789088 811.514084,81.9787686 814.159748,84.4375248 C816.686949,86.7804509 817.213449,87.925589 817.297689,88.0703766 C818.35069,89.8078274 816.139389,89.9394525 816.139389,89.9394525 L811.927387,90 Z" id="Path"></path>
                </g>
            </g>
        </g>
    </g>
</svg>
